<svg width="12" height="9" viewBox="0 0 12 9" fill="none" xmlns="http://www.w3.org/2000/svg">
<path d="M6.34895 4.89441L4.5491 7.97696L2.74926 4.89441H6.34895ZM6.83112 4.6189H2.26514L4.5491 8.5222L6.83112 4.6189Z" fill="#263238"/>
<path d="M9.47807 1.06053L11.2779 4.14308H7.67821L9.47807 1.06053ZM9.47807 0.509521L7.19409 4.41281H11.762L9.47807 0.509521Z" fill="#263238"/>
<path d="M0.0766602 0.509521L1.99169 3.96199L4.08434 0.596214L0.0766602 0.509521Z" fill="#4CAF4F"/>
<path d="M4.549 0.812012L6.55773 4.24521H2.53638L4.549 0.812012Z" fill="#4CAF4F"/>
<path d="M7.07508 4.99463L9.08576 8.52225H4.96875L7.01261 4.99463H7.07508Z" fill="#4CAF4F"/>
<path d="M7.5105 4.78076L9.47822 8.25442L11.4733 4.78076H7.5105Z" fill="#4CAF4F"/>
</svg>
