<svg width="15" height="10" viewBox="0 0 15 10" fill="none" xmlns="http://www.w3.org/2000/svg">
<path d="M7.84237 5.51994L5.61717 9.33097L3.39199 5.51994H7.84237ZM8.43849 5.17932H2.79346L5.61717 10.0051L8.43849 5.17932Z" fill="white"/>
<path d="M11.7112 0.779855L13.9364 4.59088H9.48598L11.7112 0.779855ZM11.7112 0.0986328L8.88745 4.92435H14.5349L11.7112 0.0986328Z" fill="white"/>
<path d="M0.0878906 0.0986328L2.45548 4.36699L5.04268 0.205812L0.0878906 0.0986328Z" fill="#4CAF4F"/>
<path d="M5.61716 0.472534L8.1006 4.71708H3.12891L5.61716 0.472534Z" fill="#4CAF4F"/>
<path d="M8.74009 5.6438L11.2259 10.0051H6.13599L8.66285 5.6438H8.74009Z" fill="#4CAF4F"/>
<path d="M9.27832 5.37939L11.7111 9.67395L14.1776 5.37939H9.27832Z" fill="#4CAF4F"/>
</svg>
