<svg width="7" height="7" viewBox="0 0 7 7" fill="none" xmlns="http://www.w3.org/2000/svg">
<path fill-rule="evenodd" clip-rule="evenodd" d="M3.43007 0.878174C2.65632 0.878174 2.55922 0.881557 2.25532 0.895387C1.95202 0.909276 1.74499 0.957294 1.56384 1.02775C1.37646 1.10052 1.21751 1.19786 1.05915 1.35628C0.900673 1.51463 0.803331 1.67359 0.730325 1.86091C0.659693 2.04212 0.611616 2.24921 0.597964 2.55239C0.584372 2.85629 0.580811 2.95345 0.580811 3.7272C0.580811 4.50095 0.584253 4.59775 0.598023 4.90165C0.611972 5.20495 0.65999 5.41198 0.730384 5.59313C0.803213 5.78051 0.900554 5.93946 1.05897 6.09782C1.21727 6.2563 1.37622 6.35388 1.56349 6.42665C1.74476 6.4971 1.95184 6.54512 2.25509 6.55901C2.55898 6.57284 2.65603 6.57622 3.42972 6.57622C4.20352 6.57622 4.30033 6.57284 4.60423 6.55901C4.90753 6.54512 5.1148 6.4971 5.29606 6.42665C5.48339 6.35388 5.6421 6.2563 5.8004 6.09782C5.95888 5.93946 6.05622 5.78051 6.12923 5.59319C6.19926 5.41198 6.24734 5.20489 6.26159 4.90171C6.27524 4.59781 6.2788 4.50095 6.2788 3.7272C6.2788 2.95345 6.27524 2.85635 6.26159 2.55245C6.24734 2.24915 6.19926 2.04212 6.12923 1.86097C6.05622 1.67359 5.95888 1.51463 5.8004 1.35628C5.64192 1.1978 5.48345 1.10046 5.29589 1.02775C5.11426 0.957294 4.90711 0.909276 4.60381 0.895387C4.29991 0.881557 4.20317 0.878174 3.42918 0.878174H3.43007ZM3.17448 1.39158C3.25033 1.39146 3.33497 1.39158 3.43006 1.39158C4.19075 1.39158 4.28091 1.39431 4.5813 1.40797C4.85908 1.42067 5.00984 1.46708 5.11027 1.50608C5.24323 1.55772 5.33802 1.61945 5.43767 1.71916C5.53739 1.81888 5.59912 1.91385 5.65087 2.0468C5.68987 2.14711 5.73634 2.29787 5.74899 2.57565C5.76264 2.87598 5.76561 2.9662 5.76561 3.72654C5.76561 4.48687 5.76264 4.57709 5.74899 4.87742C5.73629 5.1552 5.68987 5.30596 5.65087 5.40627C5.59924 5.53923 5.53739 5.6339 5.43767 5.73356C5.33796 5.83327 5.24329 5.895 5.11027 5.94664C5.00996 5.98581 4.85908 6.03211 4.5813 6.04481C4.28097 6.05846 4.19075 6.06143 3.43006 6.06143C2.66931 6.06143 2.57915 6.05846 2.27882 6.04481C2.00104 6.03199 1.85028 5.98558 1.74979 5.94658C1.61683 5.89494 1.52187 5.83321 1.42215 5.7335C1.32243 5.63378 1.26071 5.53905 1.20895 5.40604C1.16995 5.30573 1.12348 5.15497 1.11084 4.87719C1.09718 4.57685 1.09445 4.48663 1.09445 3.72582C1.09445 2.96502 1.09718 2.87527 1.11084 2.57494C1.12354 2.29716 1.16995 2.1464 1.20895 2.04597C1.26059 1.91301 1.32243 1.81805 1.42215 1.71833C1.52187 1.61862 1.61683 1.55689 1.74979 1.50513C1.85022 1.46596 2.00104 1.41966 2.27882 1.4069C2.54164 1.39503 2.64349 1.39146 3.17448 1.39087V1.39158ZM4.95085 1.86464C4.7621 1.86464 4.60896 2.0176 4.60896 2.20641C4.60896 2.39515 4.7621 2.54829 4.95085 2.54829C5.13959 2.54829 5.29273 2.39515 5.29273 2.20641C5.29273 2.01766 5.13959 1.86464 4.95085 1.86464ZM3.43008 2.2641C2.62208 2.2641 1.96698 2.91919 1.96698 3.72719C1.96698 4.53519 2.62208 5.18999 3.43008 5.18999C4.23807 5.18999 4.89293 4.53519 4.89293 3.72719C4.89293 2.91919 4.23807 2.2641 3.43008 2.2641ZM3.43007 2.77752C3.95452 2.77752 4.37974 3.20267 4.37974 3.72719C4.37974 4.25165 3.95452 4.67686 3.43007 4.67686C2.90555 4.67686 2.48039 4.25165 2.48039 3.72719C2.48039 3.20267 2.90555 2.77752 3.43007 2.77752Z" fill="white"/>
</svg>
