<svg width="7" height="5" viewBox="0 0 7 5" fill="none" xmlns="http://www.w3.org/2000/svg">
<path fill-rule="evenodd" clip-rule="evenodd" d="M5.73284 0.890762C5.97802 0.958039 6.1711 1.15627 6.23663 1.40801C6.3557 1.86425 6.3557 2.81621 6.3557 2.81621C6.3557 2.81621 6.3557 3.76813 6.23663 4.22441C6.1711 4.47615 5.97802 4.67438 5.73284 4.74169C5.28853 4.86392 3.50671 4.86392 3.50671 4.86392C3.50671 4.86392 1.72489 4.86392 1.28054 4.74169C1.03537 4.67438 0.842284 4.47615 0.776757 4.22441C0.657715 3.76813 0.657715 2.81621 0.657715 2.81621C0.657715 2.81621 0.657715 1.86425 0.776757 1.40801C0.842284 1.15627 1.03537 0.958039 1.28054 0.890762C1.72489 0.768494 3.50671 0.768494 3.50671 0.768494C3.50671 0.768494 5.28853 0.768494 5.73284 0.890762ZM2.97253 2.01491V3.79553L4.39703 2.90525L2.97253 2.01491Z" fill="white"/>
</svg>
