<svg width="6" height="5" viewBox="0 0 6 5" fill="none" xmlns="http://www.w3.org/2000/svg">
<path fill-rule="evenodd" clip-rule="evenodd" d="M3.321 1.72721L3.33221 1.91205L3.14539 1.88942C2.46534 1.80265 1.87123 1.50842 1.3668 1.01425L1.12019 0.769056L1.05667 0.950124C0.922154 1.35376 1.00809 1.78002 1.28833 2.06671C1.43779 2.22515 1.40417 2.24778 1.14635 2.15347C1.05667 2.1233 0.978202 2.10066 0.970729 2.11198C0.944573 2.13838 1.03425 2.48166 1.10524 2.61746C1.20239 2.80607 1.40043 2.99091 1.61715 3.10031L1.80024 3.18707L1.58352 3.19084C1.37427 3.19084 1.3668 3.19462 1.38922 3.27383C1.46395 3.51903 1.75914 3.77932 2.08795 3.89248L2.31961 3.9717L2.11784 4.09241C1.81892 4.26594 1.46769 4.36402 1.11645 4.37156C0.94831 4.37533 0.810059 4.39042 0.810059 4.40174C0.810059 4.43946 1.26591 4.65071 1.53121 4.7337C2.32709 4.97889 3.27243 4.87327 3.98237 4.45455C4.4868 4.15654 4.99123 3.5643 5.22663 2.99091C5.35367 2.68536 5.48071 2.12707 5.48071 1.85924C5.48071 1.68571 5.49192 1.66308 5.70117 1.45561C5.82447 1.33489 5.94031 1.20287 5.96273 1.16514C6.00009 1.09347 5.99635 1.09347 5.80579 1.1576C5.48819 1.27077 5.44335 1.25568 5.60028 1.08593C5.71611 0.965213 5.85437 0.746422 5.85437 0.682294C5.85437 0.670977 5.79832 0.689838 5.7348 0.723789C5.66754 0.761511 5.51808 0.818095 5.40598 0.852045L5.20421 0.916174L5.02112 0.791689C4.92024 0.723789 4.77825 0.648343 4.70352 0.62571C4.51295 0.572898 4.2215 0.580443 4.04962 0.640799C3.58256 0.81055 3.28737 1.24813 3.321 1.72721Z" fill="white"/>
</svg>
