<svg width="7" height="7" viewBox="0 0 7 7" fill="none" xmlns="http://www.w3.org/2000/svg">
<path fill-rule="evenodd" clip-rule="evenodd" d="M6.30443 3.72322C6.30443 3.91589 6.28482 4.10829 6.24629 4.29584C6.20872 4.47894 6.15308 4.65869 6.08018 4.83053C6.00896 4.99933 5.92062 5.16199 5.81739 5.31369C5.7157 5.46442 5.59856 5.60584 5.46987 5.73475C5.34091 5.86311 5.19901 5.97993 5.04835 6.08205C4.89615 6.18456 4.73326 6.27277 4.56436 6.34432C4.39227 6.41684 4.2121 6.4724 4.02917 6.5099C3.84137 6.54853 3.64826 6.56825 3.45531 6.56825C3.26222 6.56825 3.06912 6.54853 2.88159 6.5099C2.69838 6.4724 2.51822 6.41684 2.34626 6.34432C2.17738 6.27277 2.01432 6.18456 1.86213 6.08205C1.71147 5.97994 1.56957 5.86311 1.44088 5.73475C1.31206 5.60584 1.19492 5.46442 1.09309 5.31369C0.990416 5.16199 0.901931 4.99932 0.830429 4.83053C0.757522 4.65869 0.701744 4.47893 0.664042 4.29584C0.625927 4.10829 0.606445 3.91589 0.606445 3.72322C0.606445 3.5304 0.625915 3.33759 0.664053 3.15045C0.701755 2.96735 0.757534 2.78732 0.830441 2.61576C0.901942 2.44684 0.990428 2.28403 1.0931 2.13233C1.19493 1.98147 1.31207 1.84032 1.44089 1.71126C1.56958 1.5829 1.71148 1.46636 1.86214 1.36439C2.01434 1.26145 2.17739 1.17324 2.34627 1.10156C2.51823 1.02889 2.69838 0.97319 2.8816 0.935965C3.06913 0.897627 3.26223 0.878174 3.45532 0.878174C3.64827 0.878174 3.84137 0.897627 4.02918 0.935965C4.21211 0.973201 4.39227 1.0289 4.56437 1.10156C4.73326 1.17323 4.89616 1.26145 5.04836 1.36439C5.19902 1.46636 5.34093 1.5829 5.46989 1.71126C5.59857 1.84032 5.71572 1.98147 5.8174 2.13233C5.92062 2.28403 6.00896 2.44685 6.08018 2.61576C6.15308 2.78732 6.20872 2.96735 6.24629 3.15045C6.28482 3.33759 6.30443 3.5304 6.30443 3.72322ZM2.4172 1.52567C1.73871 1.8456 1.23232 2.4699 1.07442 3.22228C1.13856 3.22283 2.15246 3.23562 3.32063 2.92568C2.89952 2.17858 2.44962 1.56888 2.4172 1.52567ZM3.52221 3.2998C2.26945 3.67431 1.06733 3.64736 1.02421 3.6457C1.0235 3.67182 1.02225 3.69709 1.02225 3.72322C1.02225 4.34736 1.25806 4.91637 1.64564 5.34661C1.64481 5.34535 2.31064 4.16581 3.62363 3.74183C3.65534 3.73128 3.68763 3.72182 3.71962 3.71266C3.65856 3.57458 3.5919 3.43622 3.52221 3.2998ZM5.06212 1.89978C4.63377 1.52261 4.07132 1.29383 3.4553 1.29383C3.25761 1.29383 3.06577 1.31772 2.882 1.36189C2.91844 1.4108 3.37545 2.0162 3.79155 2.77912C4.7096 2.43545 5.05613 1.90866 5.06212 1.89978ZM3.88547 4.11524C3.88005 4.11703 3.87463 4.11858 3.86933 4.12052C2.43379 4.62025 1.965 5.62734 1.95993 5.63834C2.37298 5.95909 2.89105 6.15261 3.45532 6.15261C3.79225 6.15261 4.1132 6.08411 4.40521 5.96007C4.36918 5.7478 4.22783 5.00376 3.88547 4.11524ZM4.81491 5.73808C5.36122 5.36995 5.74921 4.78539 5.85745 4.10828C5.80737 4.09217 5.12666 3.87698 4.34134 4.00271C4.66047 4.87846 4.79014 5.59166 4.81491 5.73808ZM3.97882 3.14115C4.03529 3.25701 4.08998 3.37493 4.14047 3.49344C4.15842 3.53596 4.17595 3.57763 4.19306 3.6193C5.02888 3.51428 5.85232 3.69098 5.88752 3.69819C5.88196 3.12225 5.67564 2.59366 5.33426 2.17984C5.32966 2.18635 4.93943 2.74939 3.97882 3.14115Z" fill="white"/>
</svg>
