<svg width="7" height="7" viewBox="0 0 7 7" fill="none" xmlns="http://www.w3.org/2000/svg">
<g clip-path="url(#clip0_448_587)">
<path fill-rule="evenodd" clip-rule="evenodd" d="M6.34977 1.10771C6.41778 1.17573 6.44083 1.2767 6.40905 1.36749L4.65625 6.37549C4.62233 6.47239 4.5327 6.53877 4.43011 6.54296C4.32753 6.54715 4.23279 6.48829 4.19109 6.39447L3.2286 4.22887L1.06301 3.26639C0.969191 3.22469 0.910331 3.12995 0.914516 3.02736C0.918701 2.92478 0.985083 2.83514 1.08199 2.80123L6.08999 1.04843C6.18078 1.01665 6.28175 1.03969 6.34977 1.10771ZM3.71697 4.09462L4.39221 5.61392L5.57388 2.23771L3.71697 4.09462ZM5.21976 1.88359L1.84356 3.06526L3.36285 3.7405L5.21976 1.88359Z" fill="white"/>
</g>
<defs>
<clipPath id="clip0_448_587">
<rect width="6.0096" height="6.0096" fill="white" transform="translate(0.663818 0.783997)"/>
</clipPath>
</defs>
</svg>
